<?xml version="1.0" encoding="UTF-8"?>
<svg xmlns="http://www.w3.org/2000/svg" xmlns:xlink="http://www.w3.org/1999/xlink" width="612" height="792" viewBox="0 0 612 792">
<defs>
<clipPath id="clip-0">
<path clip-rule="nonzero" d="M 50 50 L 358 50 L 358 544 L 50 544 Z M 50 50 "/>
</clipPath>
<clipPath id="clip-1">
<path clip-rule="nonzero" d="M 64 64 L 344 64 L 344 544 L 64 544 Z M 64 64 "/>
</clipPath>
<clipPath id="clip-2">
<path clip-rule="nonzero" d="M 78 78 L 330 78 L 330 544 L 78 544 Z M 78 78 "/>
</clipPath>
<clipPath id="clip-3">
<path clip-rule="nonzero" d="M 92 92 L 316 92 L 316 544 L 92 544 Z M 92 92 "/>
</clipPath>
</defs>
<g clip-path="url(#clip-0)">
<path fill="none" stroke-width="28" stroke-linecap="butt" stroke-linejoin="miter" stroke="rgb(11.759949%, 23.919678%, 43.139648%)" stroke-opacity="1" stroke-miterlimit="4" d="M 548.000032 1080.000063 L 548.000032 400.000024 C 548.000032 397.578149 547.937532 395.156273 547.820345 392.734398 C 547.703157 390.320336 547.52347 387.906273 547.289095 385.49221 C 547.046907 383.08596 546.750032 380.67971 546.39847 378.281272 C 546.039095 375.890647 545.625032 373.500022 545.156282 371.125022 C 544.67972 368.750022 544.156282 366.390647 543.562532 364.039084 C 542.976594 361.687522 542.328157 359.359396 541.625032 357.039084 C 540.921907 354.718771 540.164094 352.421896 539.351594 350.140646 C 538.531282 347.859396 537.664094 345.601583 536.734407 343.359395 C 535.804719 341.12502 534.828156 338.914083 533.789094 336.71877 C 532.757844 334.53127 531.664094 332.367207 530.523469 330.234395 C 529.382844 328.09377 528.187531 325.992207 526.945344 323.914082 C 525.695343 321.835957 524.406281 319.789082 523.054718 317.773456 C 521.710968 315.757831 520.320343 313.781269 518.875031 311.835956 C 517.429718 309.890644 515.945343 307.984393 514.40628 306.109393 C 512.867218 304.234393 511.289093 302.406268 509.664093 300.609393 C 508.03128 298.812518 506.367217 297.062518 504.648467 295.35158 C 502.93753 293.63283 501.18753 291.968767 499.390654 290.335955 C 497.593779 288.710955 495.765654 287.13283 493.890654 285.593767 C 492.015654 284.054705 490.109404 282.570329 488.164091 281.125017 C 486.218779 279.679704 484.234404 278.289079 482.226591 276.945329 C 480.210966 275.593767 478.164091 274.304704 476.085966 273.054704 C 474.00784 271.812516 471.906278 270.617204 469.765653 269.476579 C 467.63284 268.335954 465.468777 267.242204 463.281277 266.210954 C 461.085965 265.171891 458.875027 264.195328 456.640652 263.265641 C 454.398464 262.335953 452.140652 261.468766 449.859402 260.648453 C 447.578151 259.835953 445.281276 259.078141 442.960964 258.375016 C 440.640651 257.671891 438.312526 257.023453 435.960963 256.437515 C 433.609401 255.843765 431.250026 255.312515 428.875025 254.843765 C 426.500025 254.375015 424.1094 253.960953 421.718775 253.601578 C 419.320337 253.250015 416.914087 252.95314 414.507837 252.710953 C 412.093774 252.476578 409.679712 252.29689 407.265649 252.179703 C 404.843774 252.062515 402.421899 252.000015 400.000024 252.000015 C 397.578149 252.000015 395.156273 252.062515 392.734398 252.179703 C 390.320336 252.29689 387.906273 252.476578 385.49221 252.710953 C 383.08596 252.95314 380.67971 253.250015 378.281272 253.601578 C 375.890647 253.960953 373.500022 254.375015 371.125022 254.843765 C 368.750022 255.312515 366.390647 255.843765 364.039084 256.437515 C 361.687522 257.023453 359.359396 257.671891 357.039084 258.375016 C 354.718771 259.078141 352.421896 259.835953 350.140646 260.648453 C 347.859396 261.468766 345.601583 262.335953 343.359395 263.265641 C 341.12502 264.195328 338.914083 265.171891 336.71877 266.210954 C 334.53127 267.242204 332.367207 268.335954 330.234395 269.476579 C 328.09377 270.617204 325.992207 271.812516 323.914082 273.054704 C 321.835957 274.304704 319.789082 275.593767 317.773456 276.945329 C 315.757831 278.289079 313.781269 279.679704 311.835956 281.125017 C 309.890644 282.570329 307.984393 284.054705 306.109393 285.593767 C 304.234393 287.13283 302.406268 288.710955 300.609393 290.335955 C 298.812518 291.968767 297.062518 293.63283 295.35158 295.35158 C 293.63283 297.062518 291.968767 298.812518 290.335955 300.609393 C 288.710955 302.406268 287.13283 304.234393 285.593767 306.109393 C 284.054705 307.984393 282.570329 309.890644 281.125017 311.835956 C 279.679704 313.781269 278.289079 315.757831 276.945329 317.773456 C 275.593767 319.789082 274.304704 321.835957 273.054704 323.914082 C 271.812516 325.992207 270.617204 328.09377 269.476579 330.234395 C 268.335954 332.367207 267.242204 334.53127 266.210954 336.71877 C 265.171891 338.914083 264.195328 341.12502 263.265641 343.359395 C 262.335953 345.601583 261.468766 347.859396 260.648453 350.140646 C 259.835953 352.421896 259.078141 354.718771 258.375016 357.039084 C 257.671891 359.359396 257.023453 361.687522 256.437515 364.039084 C 255.843765 366.390647 255.312515 368.750022 254.843765 371.125022 C 254.375015 373.500022 253.960953 375.890647 253.601578 378.281272 C 253.250015 380.67971 252.95314 383.08596 252.710953 385.49221 C 252.476578 387.906273 252.29689 390.320336 252.179703 392.734398 C 252.062515 395.156273 252.000015 397.578149 252.000015 400.000024 C 252.000015 402.421899 252.062515 404.843774 252.179703 407.265649 C 252.29689 409.679712 252.476578 412.093774 252.710953 414.507837 C 252.95314 416.914087 253.250015 419.320337 253.601578 421.718775 C 253.960953 424.1094 254.375015 426.500025 254.843765 428.875025 C 255.312515 431.250026 255.843765 433.609401 256.437515 435.960963 C 257.023453 438.312526 257.671891 440.640651 258.375016 442.960964 C 259.078141 445.281276 259.835953 447.578151 260.648453 449.859402 C 261.468766 452.140652 262.335953 454.398464 263.265641 456.640652 C 264.195328 458.875027 265.171891 461.085965 266.210954 463.281277 C 267.242204 465.468777 268.335954 467.63284 269.476579 469.765653 C 270.617204 471.906278 271.812516 474.00784 273.054704 476.085966 C 274.304704 478.164091 275.593767 480.210966 276.945329 482.226591 C 278.289079 484.234404 279.679704 486.218779 281.125017 488.164091 C 282.570329 490.109404 284.054705 492.015654 285.593767 493.890654 C 287.13283 495.765654 288.710955 497.593779 290.335955 499.390654 C 291.968767 501.18753 293.63283 502.93753 295.35158 504.648467 C 297.062518 506.367217 298.812518 508.03128 300.609393 509.664093 C 302.406268 511.289093 304.234393 512.867218 306.109393 514.40628 C 307.984393 515.945343 309.890644 517.429718 311.835956 518.875031 C 313.781269 520.320343 315.757831 521.710968 317.773456 523.054718 C 319.789082 524.406281 321.835957 525.695343 323.914082 526.945344 C 325.992207 528.187531 328.09377 529.382844 330.234395 530.523469 C 332.367207 531.664094 334.53127 532.757844 336.71877 533.789094 C 338.914083 534.828156 341.12502 535.804719 343.359395 536.734407 C 345.601583 537.664094 347.859396 538.531282 350.140646 539.351594 C 352.421896 540.164094 354.718771 540.921907 357.039084 541.625032 C 359.359396 542.328157 361.687522 542.976594 364.039084 543.562532 C 366.390647 544.156282 368.750022 544.67972 371.125022 545.156282 C 373.500022 545.625032 375.890647 546.039095 378.281272 546.39847 C 380.67971 546.750032 383.08596 547.046907 385.49221 547.289095 C 387.906273 547.52347 390.320336 547.703157 392.734398 547.820345 C 395.156273 547.937532 397.578149 548.000032 400.000024 548.000032 " transform="matrix(0.5, 0, 0, 0.5, 4, 4)"/>
</g>
<g clip-path="url(#clip-1)">
<path fill="none" stroke-width="28" stroke-linecap="butt" stroke-linejoin="miter" stroke="rgb(22.749329%, 70.979309%, 76.858521%)" stroke-opacity="1" stroke-miterlimit="4" d="M 520.000031 1080.000063 L 520.000031 400.000024 C 520.000031 396.070336 519.804718 392.148461 519.421906 388.234398 C 519.039093 384.328148 518.460968 380.445335 517.695343 376.58596 C 516.929718 372.734397 515.976593 368.929709 514.835968 365.164084 C 513.695343 361.406271 512.367218 357.710959 510.867218 354.078146 C 509.359405 350.445333 507.679717 346.898458 505.828155 343.429708 C 503.976592 339.96877 501.960967 336.601583 499.773467 333.328145 C 497.593779 330.06252 495.257842 326.914082 492.757842 323.875019 C 490.265654 320.835957 487.632841 317.929706 484.851591 315.148456 C 482.070341 312.367206 479.164091 309.734394 476.125028 307.242206 C 473.085965 304.742206 469.937528 302.406268 466.671903 300.22658 C 463.398465 298.03908 460.031277 296.023455 456.570339 294.171893 C 453.101589 292.32033 449.554714 290.640642 445.921901 289.13283 C 442.289089 287.63283 438.593776 286.304705 434.835963 285.16408 C 431.070338 284.023455 427.26565 283.070329 423.414088 282.304704 C 419.554712 281.539079 415.6719 280.960954 411.765649 280.578142 C 407.851587 280.195329 403.929711 280.000017 400.000024 280.000017 C 396.070336 280.000017 392.148461 280.195329 388.234398 280.578142 C 384.328148 280.960954 380.445335 281.539079 376.58596 282.304704 C 372.734397 283.070329 368.929709 284.023455 365.164084 285.16408 C 361.406271 286.304705 357.710959 287.63283 354.078146 289.13283 C 350.445333 290.640642 346.898458 292.32033 343.429708 294.171893 C 339.96877 296.023455 336.601583 298.03908 333.328145 300.22658 C 330.06252 302.406268 326.914082 304.742206 323.875019 307.242206 C 320.835957 309.734394 317.929706 312.367206 315.148456 315.148456 C 312.367206 317.929706 309.734394 320.835957 307.242206 323.875019 C 304.742206 326.914082 302.406268 330.06252 300.22658 333.328145 C 298.03908 336.601583 296.023455 339.96877 294.171893 343.429708 C 292.32033 346.898458 290.640642 350.445333 289.13283 354.078146 C 287.63283 357.710959 286.304705 361.406271 285.16408 365.164084 C 284.023455 368.929709 283.070329 372.734397 282.304704 376.58596 C 281.539079 380.445335 280.960954 384.328148 280.578142 388.234398 C 280.195329 392.148461 280.000017 396.070336 280.000017 400.000024 C 280.000017 403.929711 280.195329 407.851587 280.578142 411.765649 C 280.960954 415.6719 281.539079 419.554712 282.304704 423.414088 C 283.070329 427.26565 284.023455 431.070338 285.16408 434.835963 C 286.304705 438.593776 287.63283 442.289089 289.13283 445.921901 C 290.640642 449.554714 292.32033 453.101589 294.171893 456.570339 C 296.023455 460.031277 298.03908 463.398465 300.22658 466.671903 C 302.406268 469.937528 304.742206 473.085965 307.242206 476.125028 C 309.734394 479.164091 312.367206 482.070341 315.148456 484.851591 C 317.929706 487.632841 320.835957 490.265654 323.875019 492.757842 C 326.914082 495.257842 330.06252 497.593779 333.328145 499.773467 C 336.601583 501.960967 339.96877 503.976592 343.429708 505.828155 C 346.898458 507.679717 350.445333 509.359405 354.078146 510.867218 C 357.710959 512.367218 361.406271 513.695343 365.164084 514.835968 C 368.929709 515.976593 372.734397 516.929718 376.58596 517.695343 C 380.445335 518.460968 384.328148 519.039093 388.234398 519.421906 C 392.148461 519.804718 396.070336 520.000031 400.000024 520.000031 " transform="matrix(0.5, 0, 0, 0.5, 4, 4)"/>
</g>
<g clip-path="url(#clip-2)">
<path fill="none" stroke-width="28" stroke-linecap="butt" stroke-linejoin="miter" stroke="rgb(90.979004%, 56.469727%, 17.248535%)" stroke-opacity="1" stroke-miterlimit="4" d="M 492.000029 1080.000063 L 492.000029 400.000024 C 492.000029 396.984399 491.851592 393.984398 491.554716 390.984398 C 491.257841 387.984398 490.820341 385.007835 490.234404 382.05471 C 489.640654 379.093773 488.914091 376.17971 488.039091 373.296897 C 487.164091 370.414085 486.148466 367.578147 485.000029 364.796897 C 483.843779 362.007834 482.554716 359.289084 481.140653 356.632834 C 479.718778 353.976584 478.171903 351.390646 476.492216 348.890646 C 474.820341 346.382833 473.031278 343.96877 471.117215 341.632833 C 469.203153 339.304708 467.187528 337.078145 465.054715 334.945332 C 462.921902 332.81252 460.69534 330.796895 458.367215 328.882832 C 456.031277 326.96877 453.617214 325.179707 451.109402 323.507832 C 448.609402 321.828144 446.023464 320.281269 443.367214 318.859394 C 440.710964 317.445331 437.992213 316.156269 435.203151 315.000019 C 432.421901 313.851581 429.585963 312.835956 426.70315 311.960956 C 423.820338 311.085956 420.906275 310.359394 417.945337 309.765644 C 414.992212 309.179706 412.015649 308.742206 409.015649 308.445331 C 406.015649 308.148456 403.015649 308.000018 400.000024 308.000018 C 396.984399 308.000018 393.984398 308.148456 390.984398 308.445331 C 387.984398 308.742206 385.007835 309.179706 382.05471 309.765644 C 379.093773 310.359394 376.17971 311.085956 373.296897 311.960956 C 370.414085 312.835956 367.578147 313.851581 364.796897 315.000019 C 362.007834 316.156269 359.289084 317.445331 356.632834 318.859394 C 353.976584 320.281269 351.390646 321.828144 348.890646 323.507832 C 346.382833 325.179707 343.96877 326.96877 341.632833 328.882832 C 339.304708 330.796895 337.078145 332.81252 334.945332 334.945332 C 332.81252 337.078145 330.796895 339.304708 328.882832 341.632833 C 326.96877 343.96877 325.179707 346.382833 323.507832 348.890646 C 321.828144 351.390646 320.281269 353.976584 318.859394 356.632834 C 317.445331 359.289084 316.156269 362.007834 315.000019 364.796897 C 313.851581 367.578147 312.835956 370.414085 311.960956 373.296897 C 311.085956 376.17971 310.359394 379.093773 309.765644 382.05471 C 309.179706 385.007835 308.742206 387.984398 308.445331 390.984398 C 308.148456 393.984398 308.000018 396.984399 308.000018 400.000024 C 308.000018 403.015649 308.148456 406.015649 308.445331 409.015649 C 308.742206 412.015649 309.179706 414.992212 309.765644 417.945337 C 310.359394 420.906275 311.085956 423.820338 311.960956 426.70315 C 312.835956 429.585963 313.851581 432.421901 315.000019 435.203151 C 316.156269 437.992213 317.445331 440.710964 318.859394 443.367214 C 320.281269 446.023464 321.828144 448.609402 323.507832 451.109402 C 325.179707 453.617214 326.96877 456.031277 328.882832 458.367215 C 330.796895 460.69534 332.81252 462.921902 334.945332 465.054715 C 337.078145 467.187528 339.304708 469.203153 341.632833 471.117215 C 343.96877 473.031278 346.382833 474.820341 348.890646 476.492216 C 351.390646 478.171903 353.976584 479.718778 356.632834 481.140653 C 359.289084 482.554716 362.007834 483.843779 364.796897 485.000029 C 367.578147 486.148466 370.414085 487.164091 373.296897 488.039091 C 376.17971 488.914091 379.093773 489.640654 382.05471 490.234404 C 385.007835 490.820341 387.984398 491.257841 390.984398 491.554716 C 393.984398 491.851592 396.984399 492.000029 400.000024 492.000029 " transform="matrix(0.5, 0, 0, 0.5, 4, 4)"/>
</g>
<g clip-path="url(#clip-3)">
<path fill="none" stroke-width="28" stroke-linecap="butt" stroke-linejoin="miter" stroke="rgb(54.508972%, 15.689087%, 20.388794%)" stroke-opacity="1" stroke-miterlimit="4" d="M 464.000027 1080.000063 L 464.000027 400.000024 C 464.000027 397.906274 463.898465 395.812523 463.69534 393.726586 C 463.484402 391.640648 463.179715 389.570336 462.773465 387.515648 C 462.359402 385.46096 461.85159 383.42971 461.242215 381.421898 C 460.63284 379.414085 459.929715 377.445335 459.125027 375.507835 C 458.328152 373.570335 457.429715 371.67971 456.445339 369.828147 C 455.453152 367.984397 454.375027 366.187522 453.210964 364.445334 C 452.046902 362.703147 450.804714 361.015646 449.468777 359.398459 C 448.140651 357.781271 446.734401 356.226584 445.257839 354.742209 C 443.773464 353.265646 442.218776 351.859396 440.601589 350.523458 C 438.984401 349.195333 437.296901 347.953146 435.554713 346.789083 C 433.812526 345.625021 432.015651 344.546896 430.1719 343.554708 C 428.320338 342.570333 426.429713 341.671895 424.492213 340.87502 C 422.554713 340.070333 420.585962 339.367208 418.57815 338.757833 C 416.570337 338.148458 414.539087 337.640645 412.484399 337.226583 C 410.429712 336.820333 408.359399 336.515645 406.273462 336.304708 C 404.187524 336.101583 402.093774 336.00002 400.000024 336.00002 C 397.906274 336.00002 395.812523 336.101583 393.726586 336.304708 C 391.640648 336.515645 389.570336 336.820333 387.515648 337.226583 C 385.46096 337.640645 383.42971 338.148458 381.421898 338.757833 C 379.414085 339.367208 377.445335 340.070333 375.507835 340.87502 C 373.570335 341.671895 371.67971 342.570333 369.828147 343.554708 C 367.984397 344.546896 366.187522 345.625021 364.445334 346.789083 C 362.703147 347.953146 361.015646 349.195333 359.398459 350.523458 C 357.781271 351.859396 356.226584 353.265646 354.742209 354.742209 C 353.265646 356.226584 351.859396 357.781271 350.523458 359.398459 C 349.195333 361.015646 347.953146 362.703147 346.789083 364.445334 C 345.625021 366.187522 344.546896 367.984397 343.554708 369.828147 C 342.570333 371.67971 341.671895 373.570335 340.87502 375.507835 C 340.070333 377.445335 339.367208 379.414085 338.757833 381.421898 C 338.148458 383.42971 337.640645 385.46096 337.226583 387.515648 C 336.820333 389.570336 336.515645 391.640648 336.304708 393.726586 C 336.101583 395.812523 336.00002 397.906274 336.00002 400.000024 C 336.00002 402.093774 336.101583 404.187524 336.304708 406.273462 C 336.515645 408.359399 336.820333 410.429712 337.226583 412.484399 C 337.640645 414.539087 338.148458 416.570337 338.757833 418.57815 C 339.367208 420.585962 340.070333 422.554713 340.87502 424.492213 C 341.671895 426.429713 342.570333 428.320338 343.554708 430.1719 C 344.546896 432.015651 345.625021 433.812526 346.789083 435.554713 C 347.953146 437.296901 349.195333 438.984401 350.523458 440.601589 C 351.859396 442.218776 353.265646 443.773464 354.742209 445.257839 C 356.226584 446.734401 357.781271 448.140651 359.398459 449.468777 C 361.015646 450.804714 362.703147 452.046902 364.445334 453.210964 C 366.187522 454.375027 367.984397 455.453152 369.828147 456.445339 C 371.67971 457.429715 373.570335 458.328152 375.507835 459.125027 C 377.445335 459.929715 379.414085 460.63284 381.421898 461.242215 C 383.42971 461.85159 385.46096 462.359402 387.515648 462.773465 C 389.570336 463.179715 391.640648 463.484402 393.726586 463.69534 C 395.812523 463.898465 397.906274 464.000027 400.000024 464.000027 " transform="matrix(0.5, 0, 0, 0.5, 4, 4)"/>
</g>
<path fill="none" stroke-width="28" stroke-linecap="butt" stroke-linejoin="miter" stroke="rgb(11.759949%, 23.919678%, 43.139648%)" stroke-opacity="1" stroke-miterlimit="4" d="M 400.000024 548.000032 L 1920.000111 548.000032 " transform="matrix(0.5, 0, 0, 0.5, 4, 4)"/>
<path fill="none" stroke-width="28" stroke-linecap="butt" stroke-linejoin="miter" stroke="rgb(22.749329%, 70.979309%, 76.858521%)" stroke-opacity="1" stroke-miterlimit="4" d="M 400.000024 520.000031 L 1920.000111 520.000031 " transform="matrix(0.5, 0, 0, 0.5, 4, 4)"/>
<path fill="none" stroke-width="28" stroke-linecap="butt" stroke-linejoin="miter" stroke="rgb(90.979004%, 56.469727%, 17.248535%)" stroke-opacity="1" stroke-miterlimit="4" d="M 400.000024 492.000029 L 1920.000111 492.000029 " transform="matrix(0.5, 0, 0, 0.5, 4, 4)"/>
<path fill="none" stroke-width="28" stroke-linecap="butt" stroke-linejoin="miter" stroke="rgb(54.508972%, 15.689087%, 20.388794%)" stroke-opacity="1" stroke-miterlimit="4" d="M 400.000024 464.000027 L 1920.000111 464.000027 " transform="matrix(0.5, 0, 0, 0.5, 4, 4)"/>
</svg>
