<?xml version="1.0" encoding="UTF-8"?>
<svg xmlns="http://www.w3.org/2000/svg" xmlns:xlink="http://www.w3.org/1999/xlink" width="16px" height="32px" viewBox="0 0 16 16" version="1.1">
<g id="surface1">
<path style=" stroke:none;fill-rule:nonzero;fill:rgb(0%,0%,0%);fill-opacity:1;" d="M 9.898438 8 L 15.84375 2.058594 C 16.054688 1.847656 16.054688 1.507812 15.84375 1.296875 L 14.703125 0.15625 C 14.605469 0.0546875 14.46875 0 14.324219 0 C 14.179688 0 14.042969 0.0546875 13.945312 0.15625 L 8 6.101562 L 2.054688 0.15625 C 1.957031 0.0546875 1.820312 0 1.675781 0 C 1.53125 0 1.394531 0.0546875 1.296875 0.15625 L 0.15625 1.296875 C -0.0546875 1.507812 -0.0546875 1.847656 0.15625 2.058594 L 6.101562 8 L 0.15625 13.941406 C -0.0546875 14.152344 -0.0546875 14.492188 0.15625 14.703125 L 1.296875 15.84375 C 1.398438 15.945312 1.53125 16 1.675781 16 C 1.820312 16 1.957031 15.945312 2.058594 15.84375 L 8 9.898438 L 13.941406 15.84375 C 14.042969 15.945312 14.179688 16 14.324219 16 C 14.46875 16 14.601562 15.945312 14.703125 15.84375 L 15.84375 14.703125 C 16.054688 14.492188 16.054688 14.152344 15.84375 13.941406 Z M 9.898438 8 "/>
</g>
</svg>
